# xmcd CD database file generated by OrangeCD 6.4
#
# Track frame offsets:
#	150
#	15291
#	32244
#	47673
#	66270
#	82986
#	102261
#	122956
#	134000
#	152421
#	165621
#	183493
#	198975
#
# Disc length: 2891 seconds
#
# Revision: 0
# Processed by: cddbd v1.5.2PL0 Copyright (c) Steve Scherf et al.
# Submitted via: OrangeCD 6.4
#
DISCID=a80b490d
DTITLE=Janiva Magness - What Love Will Do
DYEAR=2008
DGENRE=Blues
TTITLE0=That's What Love Will Make You Do
TTITLE1=I Want A Love
TTITLE2=I'm Glad You're Mine
TTITLE3=Bitter Pill
TTITLE4=Fool Me Again
TTITLE5=Get It, Get It
TTITLE6=One Heartache Too Late
TTITLE7=You Sound Pretty Good
TTITLE8=I Don't Want You On My Mind
TTITLE9=Don't Do It
TTITLE10=I Won't Be Around
TTITLE11=Freedom Is Just Beyond The Door
TTITLE12=Sometimes You Got To Gamble
EXTD=
EXTT0=
EXTT1=
EXTT2=
EXTT3=
EXTT4=
EXTT5=
EXTT6=
EXTT7=
EXTT8=
EXTT9=
EXTT10=
EXTT11=
EXTT12=
PLAYORDER=
